<svg xmlns="http://www.w3.org/2000/svg" viewBox="0 0 256 256" xml:space="preserve"><path fill="#AFAFAF" d="M128 180.84v51.47H69.97c11.6 0 21-9.4 21-20.99v-30.48H128z"/><path fill="#878787" d="M121 180.84h7v51.47h-7z"/><path fill="#AFAFAF" d="M48.98 31.91v30.48H7V31.91c0-11.59 9.4-20.99 20.99-20.99s20.99 9.4 20.99 20.99z"/><path fill="#EFEFEF" d="M192.91 95.5H133c-2.76 0-5 2.24-5 5v80.34H90.97v30.48c0 11.59-9.4 20.99-21 20.99-9.97 0-19.93-7.03-20.98-20.59l-.01-149.33V31.91c0-11.59-9.4-20.99-20.99-20.99h144.03c11.28 0 19.78 8.95 20.81 18.28l.01 11.8h-22.09v43l10.5-10.25h11.63l.02 14.75.01 7z"/><path fill="#AFAFAF" d="M192.91 95.5H133c-2.76 0-5 2.24-5 5v80.34h-7V100.5c0-6.62 5.38-12 12-12h59.9l.01 7z"/><path fill="#FC5D3D" d="M249.87 100.5v146.17a5 5 0 0 1-5 5H133a5 5 0 0 1-5-5V100.5a5 5 0 0 1 5-5h111.87a5 5 0 0 1 5 5z"/><path fill="#EFC020" d="M146.33 114.5h85.21v27.156h-85.21z"/><path fill="#EFEFEF" d="M154.832 173.585a8.042 8.042 0 1 1 0-16.084 8.042 8.042 0 0 1 8.042 8.042 8.041 8.041 0 0 1-8.042 8.042zM188.935 173.585a8.042 8.042 0 1 1 0-16.084 8.042 8.042 0 1 1 0 16.084zM223.038 173.585a8.042 8.042 0 1 1 0-16.084 8.043 8.043 0 0 1 0 16.084zM154.832 201.652a8.042 8.042 0 1 1 0-16.084 8.042 8.042 0 0 1 8.042 8.042 8.04 8.04 0 0 1-8.042 8.042zM188.935 201.652a8.042 8.042 0 1 1 0-16.084 8.042 8.042 0 0 1 8.042 8.042c0 4.442-3.6 8.042-8.042 8.042zM154.832 229.72a8.042 8.042 0 1 1 0-16.084 8.042 8.042 0 0 1 8.042 8.042 8.041 8.041 0 0 1-8.042 8.042zM188.935 229.72a8.042 8.042 0 1 1 0-16.084 8.042 8.042 0 1 1 0 16.084zM223.038 185.567a8.042 8.042 0 0 0-8.042 8.042V221.677a8.042 8.042 0 1 0 16.084 0V193.61a8.043 8.043 0 0 0-8.042-8.043z"/><path fill="#EFC020" d="M247 41v32.75h-65.75L170.75 84V41z"/><path fill="#FFCBC3" d="M241 244.25h-83.917a2.5 2.5 0 1 1 0-5H238.5V105.667a2.5 2.5 0 1 1 5 0V241.75a2.5 2.5 0 0 1-2.5 2.5zm-93.917 0H139a2.5 2.5 0 1 1 0-5h8.083a2.5 2.5 0 1 1 0 5z"/><path d="M95.613 41a2.5 2.5 0 0 0 2.5 2.5h45.663a2.5 2.5 0 1 0 0-5H98.113a2.5 2.5 0 0 0-2.5 2.5zM98.985 64.5H68.447a2.5 2.5 0 1 0 0 5h30.538a2.5 2.5 0 1 0 0-5zM157.25 64.5h-43.375a2.5 2.5 0 1 0 0 5h43.375a2.5 2.5 0 1 0 0-5zM98.985 80.167H68.447a2.5 2.5 0 1 0 0 5h30.538a2.5 2.5 0 1 0 0-5zM157.25 80.167h-43.375a2.5 2.5 0 1 0 0 5h43.375a2.5 2.5 0 1 0 0-5zM98.985 95.833H68.447a2.5 2.5 0 1 0 0 5h30.538a2.5 2.5 0 1 0 0-5zM98.985 111.5H68.447a2.5 2.5 0 1 0 0 5h30.538a2.5 2.5 0 1 0 0-5zM98.985 127.167H68.447a2.5 2.5 0 1 0 0 5h30.538a2.5 2.5 0 1 0 0-5zM98.985 142.833H68.447a2.5 2.5 0 1 0 0 5h30.538a2.5 2.5 0 1 0 0-5zM98.985 158.5H68.447a2.5 2.5 0 1 0 0 5h30.538a2.5 2.5 0 1 0 0-5zM195.198 60.375a2.5 2.5 0 0 0 2.5-2.5v-1a2.5 2.5 0 1 0-5 0v1a2.5 2.5 0 0 0 2.5 2.5zM208.875 60.375a2.5 2.5 0 0 0 2.5-2.5v-1a2.5 2.5 0 1 0-5 0v1a2.5 2.5 0 0 0 2.5 2.5zM222.552 60.375a2.5 2.5 0 0 0 2.5-2.5v-1a2.5 2.5 0 1 0-5 0v1a2.5 2.5 0 0 0 2.5 2.5z"/><circle cx="112.18" cy="10.92" r="2.5"/><circle cx="128" cy="207.42" r="2.5"/><path d="M252.37 246.67V100.5c0-4.13-3.37-7.5-7.5-7.5h-49.463l-.023-16.75H247a2.5 2.5 0 0 0 2.5-2.5V41a2.5 2.5 0 0 0-2.5-2.5h-51.662c0-.405.004-9.166-.028-9.57-1.223-10.889-10.922-20.469-23.29-20.51h-49.84a2.5 2.5 0 0 0 0 5h49.93c10.131 0 17.341 8.27 18.221 15.939l.008 9.141H170.75a2.5 2.5 0 0 0-2.5 2.5v43c0 2.214 2.671 3.325 4.246 1.789l9.771-9.539h8.116l.024 16.75H133a7.488 7.488 0 0 0-5.855 2.83H113.88a2.5 2.5 0 1 0 0 5h11.62v10.67h-11.625a2.5 2.5 0 1 0 0 5H125.5v10.667h-11.625a2.5 2.5 0 1 0 0 5H125.5v10.666h-11.625a2.5 2.5 0 1 0 0 5H125.5V158.5h-11.625a2.5 2.5 0 1 0 0 5H125.5v14.84H90.97a2.5 2.5 0 0 0-2.5 2.5v30.479c-.02 10.181-8.32 18.471-18.5 18.49-8.43-.08-17.41-5.74-18.48-18.189l-.01-179.71c0-7.271-3.28-14-9-18.49h59.7a2.5 2.5 0 0 0 0-5H27.99C15.037 8.42 4.5 18.958 4.5 31.91v30.48a2.5 2.5 0 0 0 2.5 2.5h39.482l.008 146.83.01.19c1.1 15.029 12.55 22.899 23.29 22.899h.17l.01.001h55.53v11.859c0 4.13 3.37 7.5 7.5 7.5h111.87c4.13.001 7.5-3.369 7.5-7.499zM181.25 71.25a2.5 2.5 0 0 0-1.746.711l-6.254 6.104V43.5h71.25v27.75h-63.25zM9.5 59.891V31.91c0-10.195 8.295-18.49 18.49-18.49 10.18.02 18.47 8.31 18.49 18.49l.002 27.98H9.5zm121 186.779v-29.25c0-1.37-1.12-2.5-2.5-2.5s-2.5 1.13-2.5 2.5v12.391H84.436c5.494-4.304 9.033-10.991 9.033-18.491v-27.98h32.03v14.08a2.5 2.5 0 0 0 5 0V100.5a2.5 2.5 0 0 1 2.5-2.5h111.87a2.5 2.5 0 0 1 2.5 2.5v146.17a2.5 2.5 0 0 1-2.5 2.5H133a2.5 2.5 0 0 1-2.5-2.5z"/><path d="M231.54 112h-7.58a2.5 2.5 0 0 0 0 5H229.041v22.16h-80.21V117h55.13a2.5 2.5 0 0 0 0-5h-57.63a2.503 2.503 0 0 0-2.5 2.5v27.16a2.49 2.49 0 0 0 2.5 2.489h85.21c1.355 0 2.5-1.085 2.5-2.489V114.5a2.495 2.495 0 0 0-2.501-2.5z"/><circle cx="213.96" cy="114.5" r="2.5"/><path d="M154.832 155c-5.813 0-10.542 4.729-10.542 10.543 0 5.813 4.729 10.542 10.542 10.542s10.543-4.729 10.543-10.543c0-5.813-4.729-10.542-10.543-10.542zm0 16.085a5.548 5.548 0 0 1-5.542-5.543 5.548 5.548 0 0 1 5.542-5.542 5.549 5.549 0 0 1 5.543 5.543 5.548 5.548 0 0 1-5.543 5.542zM188.935 155c-5.813 0-10.542 4.729-10.542 10.543 0 5.813 4.729 10.542 10.542 10.542s10.543-4.729 10.543-10.543c0-5.813-4.73-10.542-10.543-10.542zm0 16.085a5.548 5.548 0 0 1-5.542-5.543 5.548 5.548 0 0 1 5.542-5.542 5.549 5.549 0 0 1 5.543 5.543 5.549 5.549 0 0 1-5.543 5.542zM223.037 155c-5.813 0-10.542 4.729-10.542 10.543 0 5.813 4.729 10.542 10.542 10.542s10.543-4.729 10.543-10.543c0-5.813-4.729-10.542-10.543-10.542zm0 16.085a5.548 5.548 0 0 1-5.542-5.543 5.548 5.548 0 0 1 5.542-5.542 5.549 5.549 0 0 1 5.543 5.543 5.548 5.548 0 0 1-5.543 5.542zM154.832 183.067c-5.813 0-10.542 4.729-10.542 10.543 0 5.813 4.729 10.542 10.542 10.542s10.543-4.729 10.543-10.543c0-5.812-4.729-10.542-10.543-10.542zm0 16.085a5.548 5.548 0 0 1-5.542-5.543 5.548 5.548 0 0 1 5.542-5.542 5.549 5.549 0 0 1 5.543 5.543 5.548 5.548 0 0 1-5.543 5.542zM188.935 183.067c-5.813 0-10.542 4.729-10.542 10.543 0 5.813 4.729 10.542 10.542 10.542s10.543-4.729 10.543-10.543c0-5.812-4.73-10.542-10.543-10.542zm0 16.085a5.548 5.548 0 0 1-5.542-5.543 5.548 5.548 0 0 1 5.542-5.542 5.549 5.549 0 0 1 5.543 5.543 5.549 5.549 0 0 1-5.543 5.542zM154.832 211.135c-5.813 0-10.542 4.729-10.542 10.543 0 5.813 4.729 10.542 10.542 10.542s10.543-4.729 10.543-10.543c0-5.813-4.729-10.542-10.543-10.542zm0 16.085a5.548 5.548 0 0 1-5.542-5.543 5.548 5.548 0 0 1 5.542-5.542 5.549 5.549 0 0 1 5.543 5.543 5.549 5.549 0 0 1-5.543 5.542zM188.935 211.135c-5.813 0-10.542 4.729-10.542 10.543 0 5.813 4.729 10.542 10.542 10.542s10.543-4.729 10.543-10.543c0-5.813-4.73-10.542-10.543-10.542zm0 16.085a5.548 5.548 0 0 1-5.542-5.543 5.548 5.548 0 0 1 5.542-5.542 5.549 5.549 0 0 1 5.543 5.543 5.55 5.55 0 0 1-5.543 5.542zM223.037 183.067c-5.813 0-10.542 4.729-10.542 10.542v28.068c0 5.813 4.729 10.542 10.542 10.542s10.543-4.729 10.543-10.542v-28.068c0-5.812-4.729-10.542-10.543-10.542zm5.543 38.611a5.548 5.548 0 0 1-5.543 5.542 5.548 5.548 0 0 1-5.542-5.542V193.61a5.548 5.548 0 0 1 5.542-5.542 5.548 5.548 0 0 1 5.543 5.542v28.068zM158.06 128.078a2.5 2.5 0 0 0 2.5 2.5h56.75a2.5 2.5 0 1 0 0-5h-56.75a2.5 2.5 0 0 0-2.5 2.5z"/></svg>
